<svg width="200" height="200" viewBox="0 0 153 24" fill="none" xmlns="http://www.w3.org/2000/svg">
<path d="M9.024 23.256C7.21067 23.256 5.70667 23.096 4.512 22.776C3.31733 22.4347 2.42133 21.8907 1.824 21.144C1.248 20.376 0.96 19.352 0.96 18.072C0.96 17.2827 1.024 16.3867 1.152 15.384C1.30133 14.3813 1.52533 13.2507 1.824 11.992C2.272 10.072 2.69867 8.45067 3.104 7.128C3.53067 5.80533 4 4.728 4.512 3.896C5.04533 3.04267 5.696 2.392 6.464 1.944C7.25333 1.47467 8.224 1.15467 9.376 0.983999C10.5493 0.813332 11.9787 0.727999 13.664 0.727999C14.3467 0.727999 15.0507 0.759999 15.776 0.823999C16.5227 0.866666 17.2267 0.930665 17.888 1.016C18.5707 1.10133 19.1467 1.208 19.616 1.336L18.56 6.328C17.7067 6.264 17.0133 6.21067 16.48 6.168C15.9467 6.12533 15.52 6.104 15.2 6.104C14.9013 6.08267 14.6453 6.072 14.432 6.072C13.6853 6.072 13.0667 6.09333 12.576 6.136C12.0853 6.17867 11.68 6.296 11.36 6.488C11.04 6.68 10.7733 6.98933 10.56 7.416C10.368 7.82133 10.176 8.39733 9.984 9.144C9.792 9.89067 9.57867 10.84 9.344 11.992C9.13067 12.9947 8.94933 13.8693 8.8 14.616C8.672 15.3627 8.608 15.896 8.608 16.216C8.608 16.7067 8.71467 17.08 8.928 17.336C9.14133 17.5707 9.48267 17.7307 9.952 17.816C10.4427 17.88 11.0933 17.912 11.904 17.912C12.544 17.912 13.2693 17.8907 14.08 17.848C14.912 17.8053 15.648 17.7413 16.288 17.656L15.2 22.744C14.7093 22.8293 14.112 22.9147 13.408 23C12.704 23.0853 11.968 23.1493 11.2 23.192C10.4533 23.2347 9.728 23.256 9.024 23.256ZM27.5138 23.256C25.2311 23.256 23.4284 23.096 22.1058 22.776C20.8044 22.456 19.8871 21.944 19.3538 21.24C18.8204 20.5147 18.5538 19.544 18.5538 18.328C18.5538 17.5173 18.6604 16.568 18.8738 15.48C19.0871 14.3707 19.3324 13.1013 19.6098 11.672C19.9511 9.90133 20.2711 8.38667 20.5698 7.128C20.8898 5.848 21.2844 4.80267 21.7538 3.992C22.2231 3.16 22.8311 2.50933 23.5778 2.04C24.3458 1.54933 25.3378 1.208 26.5538 1.016C27.7698 0.823999 29.2951 0.727999 31.1298 0.727999C33.4124 0.727999 35.1938 0.887999 36.4738 1.208C37.7538 1.528 38.6604 2.05067 39.1938 2.776C39.7271 3.48 39.9938 4.45067 39.9938 5.688C39.9938 6.52 39.8978 7.48 39.7058 8.568C39.5351 9.656 39.2898 10.904 38.9698 12.312C38.5644 14.104 38.1911 15.64 37.8498 16.92C37.5084 18.1787 37.1138 19.224 36.6658 20.056C36.2178 20.8667 35.6204 21.5067 34.8738 21.976C34.1484 22.4453 33.1884 22.776 31.9938 22.968C30.8204 23.16 29.3271 23.256 27.5138 23.256ZM27.9938 17.912C28.4418 17.912 28.8151 17.8907 29.1138 17.848C29.4124 17.8053 29.6578 17.688 29.8498 17.496C30.0631 17.304 30.2444 17.0053 30.3938 16.6C30.5644 16.1733 30.7351 15.5867 30.9058 14.84C31.0764 14.0933 31.2898 13.144 31.5458 11.992C31.8018 10.776 31.9938 9.784 32.1218 9.016C32.2711 8.248 32.3458 7.66133 32.3458 7.256C32.3458 6.872 32.2818 6.59467 32.1538 6.424C32.0258 6.25333 31.8231 6.15733 31.5458 6.136C31.2898 6.09333 30.9484 6.072 30.5218 6.072C30.0738 6.072 29.7004 6.09333 29.4018 6.136C29.1244 6.17867 28.8791 6.296 28.6658 6.488C28.4738 6.68 28.2924 6.98933 28.1218 7.416C27.9724 7.82133 27.8124 8.39733 27.6418 9.144C27.4711 9.89067 27.2684 10.84 27.0338 11.992C26.8631 12.824 26.7031 13.5493 26.5538 14.168C26.4258 14.7867 26.3298 15.3093 26.2658 15.736C26.2018 16.1627 26.1698 16.5147 26.1698 16.792C26.1698 17.1547 26.2338 17.4213 26.3618 17.592C26.4898 17.7413 26.6818 17.8373 26.9378 17.88C27.2151 17.9013 27.5671 17.912 27.9938 17.912ZM39.6837 23L44.3558 0.983999H55.2998C56.9211 0.983999 58.1798 1.144 59.0758 1.464C59.9931 1.76267 60.6331 2.232 60.9958 2.872C61.3798 3.49067 61.5718 4.28 61.5718 5.24C61.5718 5.56 61.5504 5.90133 61.5078 6.264C61.4864 6.62667 61.4438 7.01067 61.3798 7.416C61.3158 7.8 61.2304 8.216 61.1238 8.664C60.9744 9.368 60.8144 10.0293 60.6438 10.648C60.4731 11.2667 60.2598 11.832 60.0038 12.344C59.7478 12.856 59.4064 13.3147 58.9798 13.72C58.5531 14.1253 57.9878 14.4773 57.2838 14.776L58.5318 23H51.0118L50.3718 15.672C50.2864 15.672 50.1904 15.672 50.0838 15.672C49.9984 15.672 49.9024 15.672 49.7958 15.672H48.7078L47.1398 23H39.6837ZM49.7638 10.712H51.1078C51.5558 10.712 51.9184 10.7013 52.1958 10.68C52.4944 10.6373 52.7291 10.552 52.8998 10.424C53.0704 10.2747 53.2091 10.0507 53.3158 9.752C53.4438 9.432 53.5611 9.00533 53.6678 8.472C53.7318 8.152 53.7851 7.87467 53.8278 7.64C53.8704 7.384 53.8918 7.18133 53.8918 7.032C53.8918 6.79733 53.8384 6.62667 53.7318 6.52C53.6251 6.392 53.4331 6.30667 53.1558 6.264C52.8998 6.22133 52.5264 6.2 52.0358 6.2H50.7238L49.7638 10.712ZM60.6212 23L65.2933 0.983999H76.2373C77.8586 0.983999 79.1173 1.144 80.0133 1.464C80.9306 1.76267 81.5706 2.232 81.9333 2.872C82.3173 3.49067 82.5093 4.28 82.5093 5.24C82.5093 5.56 82.4879 5.90133 82.4453 6.264C82.4239 6.62667 82.3813 7.01067 82.3173 7.416C82.2533 7.8 82.1679 8.216 82.0613 8.664C81.9119 9.368 81.7519 10.0293 81.5813 10.648C81.4106 11.2667 81.1973 11.832 80.9413 12.344C80.6853 12.856 80.3439 13.3147 79.9173 13.72C79.4906 14.1253 78.9253 14.4773 78.2213 14.776L79.4693 23H71.9493L71.3093 15.672C71.2239 15.672 71.1279 15.672 71.0213 15.672C70.9359 15.672 70.8399 15.672 70.7333 15.672H69.6453L68.0773 23H60.6212ZM70.7013 10.712H72.0453C72.4933 10.712 72.8559 10.7013 73.1333 10.68C73.4319 10.6373 73.6666 10.552 73.8373 10.424C74.0079 10.2747 74.1466 10.0507 74.2533 9.752C74.3813 9.432 74.4986 9.00533 74.6053 8.472C74.6693 8.152 74.7226 7.87467 74.7653 7.64C74.8079 7.384 74.8293 7.18133 74.8293 7.032C74.8293 6.79733 74.7759 6.62667 74.6693 6.52C74.5626 6.392 74.3706 6.30667 74.0933 6.264C73.8373 6.22133 73.4639 6.2 72.9733 6.2H71.6613L70.7013 10.712ZM81.5587 23L86.2308 0.983999H102.359L101.207 6.328H92.5348L91.9268 9.272H99.0948L97.9748 14.488H90.8068L90.1348 17.656H98.8068L97.6548 23H81.5587ZM100.527 23L105.2 0.983999H116.144C117.765 0.983999 119.024 1.144 119.92 1.464C120.837 1.76267 121.477 2.232 121.84 2.872C122.224 3.49067 122.416 4.28 122.416 5.24C122.416 5.56 122.394 5.90133 122.352 6.264C122.33 6.62667 122.288 7.01067 122.224 7.416C122.16 7.8 122.074 8.216 121.968 8.664C121.818 9.368 121.658 10.0293 121.488 10.648C121.317 11.2667 121.104 11.832 120.848 12.344C120.592 12.856 120.25 13.3147 119.824 13.72C119.397 14.1253 118.832 14.4773 118.128 14.776L119.376 23H111.856L111.216 15.672C111.13 15.672 111.034 15.672 110.928 15.672C110.842 15.672 110.746 15.672 110.64 15.672H109.552L107.984 23H100.527ZM110.608 10.712H111.952C112.4 10.712 112.762 10.7013 113.04 10.68C113.338 10.6373 113.573 10.552 113.744 10.424C113.914 10.2747 114.053 10.0507 114.16 9.752C114.288 9.432 114.405 9.00533 114.512 8.472C114.576 8.152 114.629 7.87467 114.672 7.64C114.714 7.384 114.736 7.18133 114.736 7.032C114.736 6.79733 114.682 6.62667 114.576 6.52C114.469 6.392 114.277 6.30667 114 6.264C113.744 6.22133 113.37 6.2 112.88 6.2H111.568L110.608 10.712Z" fill="black"/>
<path d="M121.465 23L126.137 0.983999H133.625L128.921 23H121.465ZM130.362 23L141.146 0.983999H151.546L152.954 23H145.754L145.658 19.704H139.29L137.818 23H130.362ZM141.594 14.584H145.498L145.306 7H145.018L141.594 14.584Z" fill="#97FF47"/>
</svg>
